<mxfile host="app.diagrams.net" modified="2023-05-17T08:57:50.631Z" agent="Mozilla/5.0 (Windows NT 10.0; Win64; x64) AppleWebKit/537.36 (KHTML, like Gecko) Chrome/113.0.0.0 Safari/537.36" etag="43hQ3c6UdXqpr02OGHeZ" version="21.3.2" type="browser">
  <diagram name="Page-1" id="zXNEqVyuHdE3Q5ng-sDJ">
    <mxGraphModel dx="1050" dy="483" grid="1" gridSize="10" guides="1" tooltips="1" connect="1" arrows="1" fold="1" page="1" pageScale="1" pageWidth="827" pageHeight="1169" math="0" shadow="0">
      <root>
        <mxCell id="0" />
        <mxCell id="1" parent="0" />
        <mxCell id="gFXxe5-0PjqOesxZWd-R-18" value="" style="endArrow=none;html=1;rounded=0;labelBackgroundColor=default;strokeColor=default;fontFamily=Helvetica;fontSize=11;fontColor=default;shape=connector;" parent="1" source="ZnU6-ACtREe6GCIl47CC-2" target="gFXxe5-0PjqOesxZWd-R-12" edge="1">
          <mxGeometry relative="1" as="geometry" />
        </mxCell>
        <mxCell id="gFXxe5-0PjqOesxZWd-R-19" value="" style="endArrow=none;html=1;rounded=0;labelBackgroundColor=default;strokeColor=default;fontFamily=Helvetica;fontSize=11;fontColor=default;shape=connector;" parent="1" source="ZnU6-ACtREe6GCIl47CC-2" target="gFXxe5-0PjqOesxZWd-R-10" edge="1">
          <mxGeometry relative="1" as="geometry" />
        </mxCell>
        <mxCell id="gFXxe5-0PjqOesxZWd-R-30" value="" style="endArrow=none;html=1;rounded=0;labelBackgroundColor=default;strokeColor=default;fontFamily=Helvetica;fontSize=11;fontColor=default;shape=connector;" parent="1" source="ZnU6-ACtREe6GCIl47CC-2" target="gFXxe5-0PjqOesxZWd-R-29" edge="1">
          <mxGeometry relative="1" as="geometry" />
        </mxCell>
        <mxCell id="ZnU6-ACtREe6GCIl47CC-2" value="Manager" style="rounded=1;whiteSpace=wrap;html=1;arcSize=22;fillColor=#CCE5FF;fontStyle=1" parent="1" vertex="1">
          <mxGeometry x="350" y="80" width="100" height="40" as="geometry" />
        </mxCell>
        <mxCell id="gFXxe5-0PjqOesxZWd-R-20" value="" style="endArrow=none;html=1;rounded=0;labelBackgroundColor=default;strokeColor=default;fontFamily=Helvetica;fontSize=11;fontColor=default;shape=connector;" parent="1" source="gFXxe5-0PjqOesxZWd-R-9" target="ZnU6-ACtREe6GCIl47CC-2" edge="1">
          <mxGeometry relative="1" as="geometry" />
        </mxCell>
        <mxCell id="gFXxe5-0PjqOesxZWd-R-9" value="mgr_id" style="ellipse;whiteSpace=wrap;html=1;fillColor=#E6D0DE;fontStyle=4" parent="1" vertex="1">
          <mxGeometry x="240" y="50" width="80" height="40" as="geometry" />
        </mxCell>
        <mxCell id="gFXxe5-0PjqOesxZWd-R-10" value="mgr_name" style="ellipse;whiteSpace=wrap;html=1;fillColor=#E6D0DE;" parent="1" vertex="1">
          <mxGeometry x="240" y="110" width="80" height="40" as="geometry" />
        </mxCell>
        <mxCell id="gFXxe5-0PjqOesxZWd-R-21" value="" style="endArrow=none;html=1;rounded=0;labelBackgroundColor=default;strokeColor=default;fontFamily=Helvetica;fontSize=11;fontColor=default;shape=connector;" parent="1" source="gFXxe5-0PjqOesxZWd-R-11" target="ZnU6-ACtREe6GCIl47CC-2" edge="1">
          <mxGeometry relative="1" as="geometry" />
        </mxCell>
        <mxCell id="gFXxe5-0PjqOesxZWd-R-11" value="mgr_sal" style="ellipse;whiteSpace=wrap;html=1;fillColor=#E6D0DE;" parent="1" vertex="1">
          <mxGeometry x="480" y="50" width="80" height="40" as="geometry" />
        </mxCell>
        <mxCell id="gFXxe5-0PjqOesxZWd-R-12" value="mgr_phone" style="ellipse;shape=doubleEllipse;whiteSpace=wrap;html=1;fillColor=#E6D0DE;" parent="1" vertex="1">
          <mxGeometry x="480" y="110" width="80" height="40" as="geometry" />
        </mxCell>
        <mxCell id="gFXxe5-0PjqOesxZWd-R-42" style="endArrow=none;html=1;rounded=0;labelBackgroundColor=default;strokeColor=default;fontFamily=Helvetica;fontSize=11;fontColor=default;shape=connector;" parent="1" source="gFXxe5-0PjqOesxZWd-R-29" target="gFXxe5-0PjqOesxZWd-R-34" edge="1">
          <mxGeometry relative="1" as="geometry" />
        </mxCell>
        <mxCell id="gFXxe5-0PjqOesxZWd-R-29" value="&lt;b&gt;Manages&lt;/b&gt;" style="rhombus;whiteSpace=wrap;html=1;fillColor=#9AC7BF;fontFamily=Helvetica;fontSize=11;fontColor=default;" parent="1" vertex="1">
          <mxGeometry x="365" y="160" width="70" height="70" as="geometry" />
        </mxCell>
        <mxCell id="gFXxe5-0PjqOesxZWd-R-32" value="" style="endArrow=none;html=1;rounded=0;labelBackgroundColor=default;strokeColor=default;fontFamily=Helvetica;fontSize=11;fontColor=default;shape=connector;" parent="1" source="gFXxe5-0PjqOesxZWd-R-34" target="gFXxe5-0PjqOesxZWd-R-40" edge="1">
          <mxGeometry relative="1" as="geometry" />
        </mxCell>
        <mxCell id="gFXxe5-0PjqOesxZWd-R-33" value="" style="endArrow=none;html=1;rounded=0;labelBackgroundColor=default;strokeColor=default;fontFamily=Helvetica;fontSize=11;fontColor=default;shape=connector;" parent="1" source="gFXxe5-0PjqOesxZWd-R-34" target="gFXxe5-0PjqOesxZWd-R-37" edge="1">
          <mxGeometry relative="1" as="geometry" />
        </mxCell>
        <mxCell id="gFXxe5-0PjqOesxZWd-R-34" value="Agent" style="rounded=1;whiteSpace=wrap;html=1;arcSize=22;fillColor=#CCE5FF;fontStyle=1" parent="1" vertex="1">
          <mxGeometry x="350" y="280" width="100" height="40" as="geometry" />
        </mxCell>
        <mxCell id="gFXxe5-0PjqOesxZWd-R-35" value="" style="endArrow=none;html=1;rounded=0;labelBackgroundColor=default;strokeColor=default;fontFamily=Helvetica;fontSize=11;fontColor=default;shape=connector;" parent="1" source="gFXxe5-0PjqOesxZWd-R-36" target="gFXxe5-0PjqOesxZWd-R-34" edge="1">
          <mxGeometry relative="1" as="geometry" />
        </mxCell>
        <mxCell id="gFXxe5-0PjqOesxZWd-R-36" value="a_id" style="ellipse;whiteSpace=wrap;html=1;fillColor=#E6D0DE;fontStyle=4" parent="1" vertex="1">
          <mxGeometry x="240" y="250" width="80" height="40" as="geometry" />
        </mxCell>
        <mxCell id="gFXxe5-0PjqOesxZWd-R-37" value="a_name" style="ellipse;whiteSpace=wrap;html=1;fillColor=#E6D0DE;" parent="1" vertex="1">
          <mxGeometry x="240" y="310" width="80" height="40" as="geometry" />
        </mxCell>
        <mxCell id="gFXxe5-0PjqOesxZWd-R-38" value="" style="endArrow=none;html=1;rounded=0;labelBackgroundColor=default;strokeColor=default;fontFamily=Helvetica;fontSize=11;fontColor=default;shape=connector;" parent="1" source="gFXxe5-0PjqOesxZWd-R-39" target="gFXxe5-0PjqOesxZWd-R-34" edge="1">
          <mxGeometry relative="1" as="geometry" />
        </mxCell>
        <mxCell id="gFXxe5-0PjqOesxZWd-R-39" value="a_sal" style="ellipse;whiteSpace=wrap;html=1;fillColor=#E6D0DE;" parent="1" vertex="1">
          <mxGeometry x="480" y="250" width="80" height="40" as="geometry" />
        </mxCell>
        <mxCell id="gFXxe5-0PjqOesxZWd-R-40" value="a_phone" style="ellipse;shape=doubleEllipse;whiteSpace=wrap;html=1;fillColor=#E6D0DE;" parent="1" vertex="1">
          <mxGeometry x="480" y="310" width="80" height="40" as="geometry" />
        </mxCell>
        <mxCell id="gFXxe5-0PjqOesxZWd-R-43" style="endArrow=none;html=1;rounded=0;labelBackgroundColor=default;strokeColor=default;fontFamily=Helvetica;fontSize=11;fontColor=default;shape=connector;" parent="1" source="gFXxe5-0PjqOesxZWd-R-44" target="gFXxe5-0PjqOesxZWd-R-47" edge="1">
          <mxGeometry relative="1" as="geometry" />
        </mxCell>
        <mxCell id="gFXxe5-0PjqOesxZWd-R-54" value="" style="endArrow=none;html=1;rounded=0;labelBackgroundColor=default;strokeColor=default;fontFamily=Helvetica;fontSize=11;fontColor=default;shape=connector;" parent="1" source="gFXxe5-0PjqOesxZWd-R-44" target="gFXxe5-0PjqOesxZWd-R-34" edge="1">
          <mxGeometry relative="1" as="geometry" />
        </mxCell>
        <mxCell id="gFXxe5-0PjqOesxZWd-R-44" value="&lt;b&gt;Sell&lt;/b&gt;" style="rhombus;whiteSpace=wrap;html=1;fillColor=#9AC7BF;fontFamily=Helvetica;fontSize=11;fontColor=default;" parent="1" vertex="1">
          <mxGeometry x="365" y="360" width="70" height="70" as="geometry" />
        </mxCell>
        <mxCell id="gFXxe5-0PjqOesxZWd-R-46" value="" style="endArrow=none;html=1;rounded=0;labelBackgroundColor=default;strokeColor=default;fontFamily=Helvetica;fontSize=11;fontColor=default;shape=connector;" parent="1" source="gFXxe5-0PjqOesxZWd-R-47" target="gFXxe5-0PjqOesxZWd-R-50" edge="1">
          <mxGeometry relative="1" as="geometry" />
        </mxCell>
        <mxCell id="gFXxe5-0PjqOesxZWd-R-59" value="" style="endArrow=none;html=1;rounded=0;labelBackgroundColor=default;strokeColor=default;fontFamily=Helvetica;fontSize=11;fontColor=default;shape=connector;" parent="1" source="gFXxe5-0PjqOesxZWd-R-47" target="gFXxe5-0PjqOesxZWd-R-58" edge="1">
          <mxGeometry relative="1" as="geometry" />
        </mxCell>
        <mxCell id="gFXxe5-0PjqOesxZWd-R-60" value="" style="endArrow=none;html=1;rounded=0;labelBackgroundColor=default;strokeColor=default;fontFamily=Helvetica;fontSize=11;fontColor=default;shape=connector;" parent="1" source="gFXxe5-0PjqOesxZWd-R-47" target="gFXxe5-0PjqOesxZWd-R-56" edge="1">
          <mxGeometry relative="1" as="geometry" />
        </mxCell>
        <mxCell id="gFXxe5-0PjqOesxZWd-R-64" value="" style="endArrow=none;html=1;rounded=0;labelBackgroundColor=default;strokeColor=default;fontFamily=Helvetica;fontSize=11;fontColor=default;shape=connector;" parent="1" source="gFXxe5-0PjqOesxZWd-R-47" target="gFXxe5-0PjqOesxZWd-R-63" edge="1">
          <mxGeometry relative="1" as="geometry" />
        </mxCell>
        <mxCell id="gFXxe5-0PjqOesxZWd-R-65" value="" style="endArrow=none;html=1;rounded=0;labelBackgroundColor=default;strokeColor=default;fontFamily=Helvetica;fontSize=11;fontColor=default;shape=connector;" parent="1" source="gFXxe5-0PjqOesxZWd-R-47" target="gFXxe5-0PjqOesxZWd-R-61" edge="1">
          <mxGeometry relative="1" as="geometry" />
        </mxCell>
        <mxCell id="gFXxe5-0PjqOesxZWd-R-67" value="" style="endArrow=none;html=1;rounded=0;labelBackgroundColor=default;strokeColor=default;fontFamily=Helvetica;fontSize=11;fontColor=default;shape=connector;" parent="1" source="gFXxe5-0PjqOesxZWd-R-47" target="gFXxe5-0PjqOesxZWd-R-66" edge="1">
          <mxGeometry relative="1" as="geometry" />
        </mxCell>
        <mxCell id="gFXxe5-0PjqOesxZWd-R-47" value="Ticket" style="rounded=1;whiteSpace=wrap;html=1;arcSize=22;fillColor=#CCE5FF;fontStyle=1" parent="1" vertex="1">
          <mxGeometry x="350" y="480" width="100" height="40" as="geometry" />
        </mxCell>
        <mxCell id="gFXxe5-0PjqOesxZWd-R-48" value="" style="endArrow=none;html=1;rounded=0;labelBackgroundColor=default;strokeColor=default;fontFamily=Helvetica;fontSize=11;fontColor=default;shape=connector;" parent="1" source="gFXxe5-0PjqOesxZWd-R-49" target="gFXxe5-0PjqOesxZWd-R-47" edge="1">
          <mxGeometry relative="1" as="geometry" />
        </mxCell>
        <mxCell id="gFXxe5-0PjqOesxZWd-R-49" value="t_id" style="ellipse;whiteSpace=wrap;html=1;fillColor=#E6D0DE;fontStyle=4" parent="1" vertex="1">
          <mxGeometry x="450" y="585" width="80" height="40" as="geometry" />
        </mxCell>
        <mxCell id="gFXxe5-0PjqOesxZWd-R-50" value="fare" style="ellipse;whiteSpace=wrap;html=1;fillColor=#E6D0DE;" parent="1" vertex="1">
          <mxGeometry x="510" y="500" width="80" height="40" as="geometry" />
        </mxCell>
        <mxCell id="gFXxe5-0PjqOesxZWd-R-51" value="" style="endArrow=none;html=1;rounded=0;labelBackgroundColor=default;strokeColor=default;fontFamily=Helvetica;fontSize=11;fontColor=default;shape=connector;" parent="1" source="gFXxe5-0PjqOesxZWd-R-52" target="gFXxe5-0PjqOesxZWd-R-47" edge="1">
          <mxGeometry relative="1" as="geometry" />
        </mxCell>
        <mxCell id="gFXxe5-0PjqOesxZWd-R-52" value="departure" style="ellipse;whiteSpace=wrap;html=1;fillColor=#E6D0DE;" parent="1" vertex="1">
          <mxGeometry x="420" y="420" width="80" height="40" as="geometry" />
        </mxCell>
        <mxCell id="gFXxe5-0PjqOesxZWd-R-56" value="baggage" style="ellipse;whiteSpace=wrap;html=1;fillColor=#E6D0DE;fontFamily=Helvetica;fontSize=11;fontColor=default;" parent="1" vertex="1">
          <mxGeometry x="500" y="545" width="80" height="40" as="geometry" />
        </mxCell>
        <mxCell id="gFXxe5-0PjqOesxZWd-R-58" value="destination" style="ellipse;whiteSpace=wrap;html=1;fillColor=#E6D0DE;fontFamily=Helvetica;fontSize=11;fontColor=default;" parent="1" vertex="1">
          <mxGeometry x="490" y="450" width="80" height="40" as="geometry" />
        </mxCell>
        <mxCell id="gFXxe5-0PjqOesxZWd-R-61" value="d_date" style="ellipse;whiteSpace=wrap;html=1;fillColor=#E6D0DE;fontFamily=Helvetica;fontSize=11;fontColor=default;" parent="1" vertex="1">
          <mxGeometry x="360" y="600" width="80" height="40" as="geometry" />
        </mxCell>
        <mxCell id="gFXxe5-0PjqOesxZWd-R-63" value="amount" style="ellipse;whiteSpace=wrap;html=1;fillColor=#E6D0DE;fontFamily=Helvetica;fontSize=11;fontColor=default;" parent="1" vertex="1">
          <mxGeometry x="300" y="420" width="80" height="40" as="geometry" />
        </mxCell>
        <mxCell id="gFXxe5-0PjqOesxZWd-R-71" value="" style="endArrow=none;html=1;rounded=0;labelBackgroundColor=default;strokeColor=default;fontFamily=Helvetica;fontSize=11;fontColor=default;shape=connector;" parent="1" source="gFXxe5-0PjqOesxZWd-R-66" target="gFXxe5-0PjqOesxZWd-R-68" edge="1">
          <mxGeometry relative="1" as="geometry" />
        </mxCell>
        <mxCell id="gFXxe5-0PjqOesxZWd-R-72" value="" style="endArrow=none;html=1;rounded=0;labelBackgroundColor=default;strokeColor=default;fontFamily=Helvetica;fontSize=11;fontColor=default;shape=connector;" parent="1" source="gFXxe5-0PjqOesxZWd-R-66" target="gFXxe5-0PjqOesxZWd-R-69" edge="1">
          <mxGeometry relative="1" as="geometry" />
        </mxCell>
        <mxCell id="gFXxe5-0PjqOesxZWd-R-95" value="" style="endArrow=none;html=1;rounded=0;labelBackgroundColor=default;strokeColor=default;fontFamily=Helvetica;fontSize=11;fontColor=default;shape=connector;" parent="1" source="gFXxe5-0PjqOesxZWd-R-66" target="gFXxe5-0PjqOesxZWd-R-86" edge="1">
          <mxGeometry relative="1" as="geometry" />
        </mxCell>
        <mxCell id="gFXxe5-0PjqOesxZWd-R-66" value="&lt;b&gt;Purchase&lt;/b&gt;" style="rhombus;whiteSpace=wrap;html=1;fillColor=#9AC7BF;fontFamily=Helvetica;fontSize=11;fontColor=default;" parent="1" vertex="1">
          <mxGeometry x="235" y="465" width="70" height="70" as="geometry" />
        </mxCell>
        <mxCell id="gFXxe5-0PjqOesxZWd-R-68" value="t_fare" style="ellipse;whiteSpace=wrap;html=1;fillColor=#E6D0DE;fontFamily=Helvetica;fontSize=11;fontColor=default;" parent="1" vertex="1">
          <mxGeometry x="230" y="390" width="80" height="40" as="geometry" />
        </mxCell>
        <mxCell id="gFXxe5-0PjqOesxZWd-R-69" value="&lt;u&gt;pay_id&lt;/u&gt;" style="ellipse;whiteSpace=wrap;html=1;fillColor=#E6D0DE;fontFamily=Helvetica;fontSize=11;fontColor=default;" parent="1" vertex="1">
          <mxGeometry x="230" y="570" width="80" height="40" as="geometry" />
        </mxCell>
        <mxCell id="gFXxe5-0PjqOesxZWd-R-87" value="" style="endArrow=none;html=1;rounded=0;labelBackgroundColor=default;strokeColor=default;fontFamily=Helvetica;fontSize=11;fontColor=default;shape=connector;" parent="1" source="gFXxe5-0PjqOesxZWd-R-75" target="gFXxe5-0PjqOesxZWd-R-86" edge="1">
          <mxGeometry relative="1" as="geometry" />
        </mxCell>
        <mxCell id="gFXxe5-0PjqOesxZWd-R-75" value="&lt;u&gt;c_id&lt;/u&gt;" style="ellipse;whiteSpace=wrap;html=1;fillColor=#E6D0DE;fontFamily=Helvetica;fontSize=11;fontColor=default;" parent="1" vertex="1">
          <mxGeometry x="170" y="430" width="80" height="40" as="geometry" />
        </mxCell>
        <mxCell id="gFXxe5-0PjqOesxZWd-R-88" style="endArrow=none;html=1;rounded=0;labelBackgroundColor=default;strokeColor=default;fontFamily=Helvetica;fontSize=11;fontColor=default;shape=connector;" parent="1" source="gFXxe5-0PjqOesxZWd-R-76" target="gFXxe5-0PjqOesxZWd-R-86" edge="1">
          <mxGeometry relative="1" as="geometry" />
        </mxCell>
        <mxCell id="gFXxe5-0PjqOesxZWd-R-76" value="c_name" style="ellipse;whiteSpace=wrap;html=1;fillColor=#E6D0DE;fontFamily=Helvetica;fontSize=11;fontColor=default;" parent="1" vertex="1">
          <mxGeometry x="115" y="375" width="80" height="40" as="geometry" />
        </mxCell>
        <mxCell id="gFXxe5-0PjqOesxZWd-R-89" style="endArrow=none;html=1;rounded=0;labelBackgroundColor=default;strokeColor=default;fontFamily=Helvetica;fontSize=11;fontColor=default;shape=connector;" parent="1" source="gFXxe5-0PjqOesxZWd-R-77" target="gFXxe5-0PjqOesxZWd-R-86" edge="1">
          <mxGeometry relative="1" as="geometry">
            <mxPoint x="130" y="490" as="targetPoint" />
          </mxGeometry>
        </mxCell>
        <mxCell id="gFXxe5-0PjqOesxZWd-R-77" value="c_age" style="ellipse;whiteSpace=wrap;html=1;fillColor=#E6D0DE;fontFamily=Helvetica;fontSize=11;fontColor=default;" parent="1" vertex="1">
          <mxGeometry x="30" y="380" width="80" height="40" as="geometry" />
        </mxCell>
        <mxCell id="gFXxe5-0PjqOesxZWd-R-90" style="endArrow=none;html=1;rounded=0;labelBackgroundColor=default;strokeColor=default;fontFamily=Helvetica;fontSize=11;fontColor=default;shape=connector;" parent="1" source="gFXxe5-0PjqOesxZWd-R-78" target="gFXxe5-0PjqOesxZWd-R-86" edge="1">
          <mxGeometry relative="1" as="geometry" />
        </mxCell>
        <mxCell id="gFXxe5-0PjqOesxZWd-R-78" value="c_gender" style="ellipse;whiteSpace=wrap;html=1;fillColor=#E6D0DE;fontFamily=Helvetica;fontSize=11;fontColor=default;" parent="1" vertex="1">
          <mxGeometry x="10" y="430" width="80" height="40" as="geometry" />
        </mxCell>
        <mxCell id="gFXxe5-0PjqOesxZWd-R-91" value="" style="endArrow=none;html=1;rounded=0;labelBackgroundColor=default;strokeColor=default;fontFamily=Helvetica;fontSize=11;fontColor=default;shape=connector;" parent="1" source="gFXxe5-0PjqOesxZWd-R-79" target="gFXxe5-0PjqOesxZWd-R-86" edge="1">
          <mxGeometry relative="1" as="geometry" />
        </mxCell>
        <mxCell id="gFXxe5-0PjqOesxZWd-R-79" value="c_phone" style="ellipse;shape=doubleEllipse;whiteSpace=wrap;html=1;fillColor=#E6D0DE;fontFamily=Helvetica;fontSize=11;fontColor=default;" parent="1" vertex="1">
          <mxGeometry x="10" y="480" width="80" height="40" as="geometry" />
        </mxCell>
        <mxCell id="gFXxe5-0PjqOesxZWd-R-93" style="endArrow=none;html=1;rounded=0;labelBackgroundColor=default;strokeColor=default;fontFamily=Helvetica;fontSize=11;fontColor=default;shape=connector;" parent="1" source="gFXxe5-0PjqOesxZWd-R-80" target="gFXxe5-0PjqOesxZWd-R-86" edge="1">
          <mxGeometry relative="1" as="geometry" />
        </mxCell>
        <mxCell id="VN9zvplVHDPRx_Ybqjfq-21" value="" style="endArrow=none;html=1;rounded=0;labelBackgroundColor=default;strokeColor=default;fontFamily=Helvetica;fontSize=11;fontColor=default;shape=connector;" parent="1" source="gFXxe5-0PjqOesxZWd-R-80" target="VN9zvplVHDPRx_Ybqjfq-4" edge="1">
          <mxGeometry relative="1" as="geometry" />
        </mxCell>
        <mxCell id="gFXxe5-0PjqOesxZWd-R-80" value="address" style="ellipse;whiteSpace=wrap;html=1;fillColor=#E6D0DE;fontFamily=Helvetica;fontSize=11;fontColor=default;" parent="1" vertex="1">
          <mxGeometry y="528" width="80" height="40" as="geometry" />
        </mxCell>
        <mxCell id="gFXxe5-0PjqOesxZWd-R-92" style="endArrow=none;html=1;rounded=0;labelBackgroundColor=default;strokeColor=default;fontFamily=Helvetica;fontSize=11;fontColor=default;shape=connector;" parent="1" source="gFXxe5-0PjqOesxZWd-R-81" target="gFXxe5-0PjqOesxZWd-R-86" edge="1">
          <mxGeometry relative="1" as="geometry" />
        </mxCell>
        <mxCell id="gFXxe5-0PjqOesxZWd-R-81" value="pay_history" style="ellipse;whiteSpace=wrap;html=1;fillColor=#E6D0DE;fontFamily=Helvetica;fontSize=11;fontColor=default;" parent="1" vertex="1">
          <mxGeometry x="175" y="530" width="90" height="40" as="geometry" />
        </mxCell>
        <mxCell id="gFXxe5-0PjqOesxZWd-R-86" value="Customer" style="rounded=1;whiteSpace=wrap;html=1;arcSize=22;fillColor=#CCE5FF;fontStyle=1" parent="1" vertex="1">
          <mxGeometry x="105" y="480" width="100" height="40" as="geometry" />
        </mxCell>
        <mxCell id="gFXxe5-0PjqOesxZWd-R-97" value="" style="endArrow=none;html=1;rounded=0;labelBackgroundColor=default;strokeColor=default;fontFamily=Helvetica;fontSize=11;fontColor=default;shape=connector;" parent="1" source="gFXxe5-0PjqOesxZWd-R-96" target="gFXxe5-0PjqOesxZWd-R-86" edge="1">
          <mxGeometry relative="1" as="geometry" />
        </mxCell>
        <mxCell id="gFXxe5-0PjqOesxZWd-R-99" value="" style="endArrow=none;html=1;rounded=0;labelBackgroundColor=default;strokeColor=default;fontFamily=Helvetica;fontSize=11;fontColor=default;shape=connector;" parent="1" source="gFXxe5-0PjqOesxZWd-R-96" target="gFXxe5-0PjqOesxZWd-R-98" edge="1">
          <mxGeometry relative="1" as="geometry" />
        </mxCell>
        <mxCell id="gFXxe5-0PjqOesxZWd-R-96" value="&lt;b&gt;Buy as/for&lt;/b&gt;" style="rhombus;whiteSpace=wrap;html=1;fillColor=#9AC7BF;fontFamily=Helvetica;fontSize=11;fontColor=default;" parent="1" vertex="1">
          <mxGeometry x="120" y="590" width="70" height="70" as="geometry" />
        </mxCell>
        <mxCell id="gFXxe5-0PjqOesxZWd-R-108" style="endArrow=none;html=1;rounded=0;labelBackgroundColor=default;strokeColor=default;fontFamily=Helvetica;fontSize=11;fontColor=default;shape=connector;entryX=1;entryY=0.5;entryDx=0;entryDy=0;" parent="1" source="gFXxe5-0PjqOesxZWd-R-98" target="gFXxe5-0PjqOesxZWd-R-103" edge="1">
          <mxGeometry relative="1" as="geometry" />
        </mxCell>
        <mxCell id="gFXxe5-0PjqOesxZWd-R-118" style="endArrow=none;html=1;rounded=0;labelBackgroundColor=default;strokeColor=default;fontFamily=Helvetica;fontSize=11;fontColor=default;shape=connector;" parent="1" source="gFXxe5-0PjqOesxZWd-R-98" target="gFXxe5-0PjqOesxZWd-R-117" edge="1">
          <mxGeometry relative="1" as="geometry" />
        </mxCell>
        <mxCell id="gFXxe5-0PjqOesxZWd-R-163" style="endArrow=none;html=1;rounded=0;labelBackgroundColor=default;strokeColor=default;fontFamily=Helvetica;fontSize=11;fontColor=default;shape=connector;entryX=0;entryY=0.5;entryDx=0;entryDy=0;" parent="1" source="gFXxe5-0PjqOesxZWd-R-98" target="gFXxe5-0PjqOesxZWd-R-104" edge="1">
          <mxGeometry relative="1" as="geometry" />
        </mxCell>
        <mxCell id="gFXxe5-0PjqOesxZWd-R-98" value="Passenger" style="rounded=1;whiteSpace=wrap;html=1;arcSize=22;fillColor=#CCE5FF;fontFamily=Helvetica;fontSize=11;fontColor=default;fontStyle=1" parent="1" vertex="1">
          <mxGeometry x="105" y="730" width="100" height="40" as="geometry" />
        </mxCell>
        <mxCell id="gFXxe5-0PjqOesxZWd-R-106" style="endArrow=none;html=1;rounded=0;labelBackgroundColor=default;strokeColor=default;fontFamily=Helvetica;fontSize=11;fontColor=default;shape=connector;" parent="1" source="gFXxe5-0PjqOesxZWd-R-100" target="gFXxe5-0PjqOesxZWd-R-98" edge="1">
          <mxGeometry relative="1" as="geometry" />
        </mxCell>
        <mxCell id="gFXxe5-0PjqOesxZWd-R-100" value="p_id" style="ellipse;whiteSpace=wrap;html=1;fillColor=#E6D0DE;fontFamily=Helvetica;fontSize=11;fontColor=default;fontStyle=4" parent="1" vertex="1">
          <mxGeometry x="190" y="640" width="80" height="40" as="geometry" />
        </mxCell>
        <mxCell id="gFXxe5-0PjqOesxZWd-R-113" style="endArrow=none;html=1;rounded=0;labelBackgroundColor=default;strokeColor=default;fontFamily=Helvetica;fontSize=11;fontColor=default;shape=connector;exitX=1;exitY=0.5;exitDx=0;exitDy=0;" parent="1" source="gFXxe5-0PjqOesxZWd-R-101" target="gFXxe5-0PjqOesxZWd-R-98" edge="1">
          <mxGeometry relative="1" as="geometry" />
        </mxCell>
        <mxCell id="gFXxe5-0PjqOesxZWd-R-101" value="p_phone" style="ellipse;shape=doubleEllipse;whiteSpace=wrap;html=1;fillColor=#E6D0DE;fontFamily=Helvetica;fontSize=11;fontColor=default;" parent="1" vertex="1">
          <mxGeometry x="10" y="805" width="80" height="40" as="geometry" />
        </mxCell>
        <mxCell id="gFXxe5-0PjqOesxZWd-R-114" style="endArrow=none;html=1;rounded=0;labelBackgroundColor=default;strokeColor=default;fontFamily=Helvetica;fontSize=11;fontColor=default;shape=connector;" parent="1" source="gFXxe5-0PjqOesxZWd-R-102" target="gFXxe5-0PjqOesxZWd-R-98" edge="1">
          <mxGeometry relative="1" as="geometry" />
        </mxCell>
        <mxCell id="gFXxe5-0PjqOesxZWd-R-102" value="p_gender" style="ellipse;whiteSpace=wrap;html=1;fillColor=#E6D0DE;fontFamily=Helvetica;fontSize=11;fontColor=default;" parent="1" vertex="1">
          <mxGeometry x="10" y="740" width="80" height="40" as="geometry" />
        </mxCell>
        <mxCell id="gFXxe5-0PjqOesxZWd-R-103" value="p_name" style="ellipse;whiteSpace=wrap;html=1;fillColor=#E6D0DE;fontFamily=Helvetica;fontSize=11;fontColor=default;" parent="1" vertex="1">
          <mxGeometry x="10" y="680" width="80" height="40" as="geometry" />
        </mxCell>
        <mxCell id="VN9zvplVHDPRx_Ybqjfq-18" value="" style="endArrow=none;html=1;rounded=0;labelBackgroundColor=default;strokeColor=default;fontFamily=Helvetica;fontSize=11;fontColor=default;shape=connector;exitX=0;exitY=0.5;exitDx=0;exitDy=0;" parent="1" source="gFXxe5-0PjqOesxZWd-R-104" target="VN9zvplVHDPRx_Ybqjfq-17" edge="1">
          <mxGeometry relative="1" as="geometry" />
        </mxCell>
        <mxCell id="gFXxe5-0PjqOesxZWd-R-104" value="address" style="ellipse;whiteSpace=wrap;html=1;fillColor=#E6D0DE;fontFamily=Helvetica;fontSize=11;fontColor=default;" parent="1" vertex="1">
          <mxGeometry x="210" y="805" width="80" height="40" as="geometry" />
        </mxCell>
        <mxCell id="gFXxe5-0PjqOesxZWd-R-116" style="endArrow=none;html=1;rounded=0;labelBackgroundColor=default;strokeColor=default;fontFamily=Helvetica;fontSize=11;fontColor=default;shape=connector;exitX=0;exitY=0.5;exitDx=0;exitDy=0;" parent="1" source="gFXxe5-0PjqOesxZWd-R-105" target="gFXxe5-0PjqOesxZWd-R-98" edge="1">
          <mxGeometry relative="1" as="geometry" />
        </mxCell>
        <mxCell id="gFXxe5-0PjqOesxZWd-R-105" value="p_age" style="ellipse;whiteSpace=wrap;html=1;fillColor=#E6D0DE;fontFamily=Helvetica;fontSize=11;fontColor=default;" parent="1" vertex="1">
          <mxGeometry x="250" y="680" width="80" height="40" as="geometry" />
        </mxCell>
        <mxCell id="gFXxe5-0PjqOesxZWd-R-179" style="endArrow=none;html=1;rounded=0;labelBackgroundColor=default;strokeColor=default;fontFamily=Helvetica;fontSize=11;fontColor=default;shape=connector;" parent="1" source="gFXxe5-0PjqOesxZWd-R-117" target="gFXxe5-0PjqOesxZWd-R-170" edge="1">
          <mxGeometry relative="1" as="geometry" />
        </mxCell>
        <mxCell id="gFXxe5-0PjqOesxZWd-R-117" value="&lt;b&gt;Sits on&lt;/b&gt;" style="rhombus;whiteSpace=wrap;html=1;fillColor=#9AC7BF;fontFamily=Helvetica;fontSize=11;fontColor=default;" parent="1" vertex="1">
          <mxGeometry x="120" y="885" width="70" height="70" as="geometry" />
        </mxCell>
        <mxCell id="gFXxe5-0PjqOesxZWd-R-140" value="" style="endArrow=none;html=1;rounded=0;labelBackgroundColor=default;strokeColor=default;fontFamily=Helvetica;fontSize=11;fontColor=default;shape=connector;entryX=0;entryY=0.5;entryDx=0;entryDy=0;" parent="1" source="gFXxe5-0PjqOesxZWd-R-145" target="gFXxe5-0PjqOesxZWd-R-152" edge="1">
          <mxGeometry relative="1" as="geometry" />
        </mxCell>
        <mxCell id="gFXxe5-0PjqOesxZWd-R-142" value="" style="endArrow=none;html=1;rounded=0;labelBackgroundColor=default;strokeColor=default;fontFamily=Helvetica;fontSize=11;fontColor=default;shape=connector;entryX=1;entryY=0.5;entryDx=0;entryDy=0;" parent="1" source="gFXxe5-0PjqOesxZWd-R-145" target="gFXxe5-0PjqOesxZWd-R-154" edge="1">
          <mxGeometry relative="1" as="geometry" />
        </mxCell>
        <mxCell id="gFXxe5-0PjqOesxZWd-R-143" value="" style="endArrow=none;html=1;rounded=0;labelBackgroundColor=default;strokeColor=default;fontFamily=Helvetica;fontSize=11;fontColor=default;shape=connector;" parent="1" edge="1">
          <mxGeometry relative="1" as="geometry">
            <mxPoint x="620" y="740" as="sourcePoint" />
            <mxPoint x="560" y="700" as="targetPoint" />
          </mxGeometry>
        </mxCell>
        <mxCell id="gFXxe5-0PjqOesxZWd-R-145" value="Plane" style="rounded=1;whiteSpace=wrap;html=1;arcSize=22;fillColor=#CCE5FF;fontStyle=1" parent="1" vertex="1">
          <mxGeometry x="595" y="730" width="100" height="40" as="geometry" />
        </mxCell>
        <mxCell id="gFXxe5-0PjqOesxZWd-R-146" value="" style="endArrow=none;html=1;rounded=0;labelBackgroundColor=default;strokeColor=default;fontFamily=Helvetica;fontSize=11;fontColor=default;shape=connector;exitX=0;exitY=0.5;exitDx=0;exitDy=0;" parent="1" source="gFXxe5-0PjqOesxZWd-R-147" target="gFXxe5-0PjqOesxZWd-R-145" edge="1">
          <mxGeometry relative="1" as="geometry" />
        </mxCell>
        <mxCell id="gFXxe5-0PjqOesxZWd-R-147" value="pl_id" style="ellipse;whiteSpace=wrap;html=1;fillColor=#E6D0DE;fontStyle=4" parent="1" vertex="1">
          <mxGeometry x="720" y="805" width="80" height="40" as="geometry" />
        </mxCell>
        <mxCell id="gFXxe5-0PjqOesxZWd-R-193" style="endArrow=none;html=1;rounded=0;labelBackgroundColor=default;strokeColor=default;fontFamily=Helvetica;fontSize=11;fontColor=default;shape=connector;" parent="1" source="gFXxe5-0PjqOesxZWd-R-148" target="gFXxe5-0PjqOesxZWd-R-145" edge="1">
          <mxGeometry relative="1" as="geometry" />
        </mxCell>
        <mxCell id="gFXxe5-0PjqOesxZWd-R-148" value="t_no" style="ellipse;whiteSpace=wrap;html=1;fillColor=#E6D0DE;" parent="1" vertex="1">
          <mxGeometry x="740" y="760" width="80" height="40" as="geometry" />
        </mxCell>
        <mxCell id="gFXxe5-0PjqOesxZWd-R-149" value="" style="endArrow=none;html=1;rounded=0;labelBackgroundColor=default;strokeColor=default;fontFamily=Helvetica;fontSize=11;fontColor=default;shape=connector;exitX=0.053;exitY=0.644;exitDx=0;exitDy=0;exitPerimeter=0;" parent="1" source="gFXxe5-0PjqOesxZWd-R-150" target="gFXxe5-0PjqOesxZWd-R-145" edge="1">
          <mxGeometry relative="1" as="geometry" />
        </mxCell>
        <mxCell id="gFXxe5-0PjqOesxZWd-R-150" value="takeoff_airport" style="ellipse;whiteSpace=wrap;html=1;fillColor=#E6D0DE;" parent="1" vertex="1">
          <mxGeometry x="710" y="640" width="90" height="50" as="geometry" />
        </mxCell>
        <mxCell id="gFXxe5-0PjqOesxZWd-R-152" value="d_airport" style="ellipse;whiteSpace=wrap;html=1;fillColor=#E6D0DE;fontFamily=Helvetica;fontSize=11;fontColor=default;" parent="1" vertex="1">
          <mxGeometry x="730" y="710" width="80" height="40" as="geometry" />
        </mxCell>
        <mxCell id="gFXxe5-0PjqOesxZWd-R-153" value="capacity" style="ellipse;whiteSpace=wrap;html=1;fillColor=#E6D0DE;fontFamily=Helvetica;fontSize=11;fontColor=default;" parent="1" vertex="1">
          <mxGeometry x="484" y="680" width="80" height="40" as="geometry" />
        </mxCell>
        <mxCell id="gFXxe5-0PjqOesxZWd-R-154" value="takeoff_time" style="ellipse;whiteSpace=wrap;html=1;fillColor=#E6D0DE;fontFamily=Helvetica;fontSize=11;fontColor=default;" parent="1" vertex="1">
          <mxGeometry x="530" y="640" width="80" height="40" as="geometry" />
        </mxCell>
        <mxCell id="gFXxe5-0PjqOesxZWd-R-158" style="endArrow=none;html=1;rounded=0;labelBackgroundColor=default;strokeColor=default;fontFamily=Helvetica;fontSize=11;fontColor=default;shape=connector;" parent="1" source="gFXxe5-0PjqOesxZWd-R-157" target="gFXxe5-0PjqOesxZWd-R-98" edge="1">
          <mxGeometry relative="1" as="geometry">
            <Array as="points">
              <mxPoint x="260" y="750" />
            </Array>
          </mxGeometry>
        </mxCell>
        <mxCell id="gFXxe5-0PjqOesxZWd-R-159" style="endArrow=none;html=1;rounded=0;labelBackgroundColor=default;strokeColor=default;fontFamily=Helvetica;fontSize=11;fontColor=default;shape=connector;" parent="1" source="gFXxe5-0PjqOesxZWd-R-157" target="gFXxe5-0PjqOesxZWd-R-145" edge="1">
          <mxGeometry relative="1" as="geometry" />
        </mxCell>
        <mxCell id="gFXxe5-0PjqOesxZWd-R-157" value="&lt;b&gt;Boarding&lt;/b&gt;" style="rhombus;whiteSpace=wrap;html=1;fillColor=#9AC7BF;fontFamily=Helvetica;fontSize=11;fontColor=default;" parent="1" vertex="1">
          <mxGeometry x="365" y="715" width="70" height="70" as="geometry" />
        </mxCell>
        <mxCell id="gFXxe5-0PjqOesxZWd-R-169" value="" style="endArrow=none;html=1;rounded=0;labelBackgroundColor=default;strokeColor=default;fontFamily=Helvetica;fontSize=11;fontColor=default;shape=connector;" parent="1" source="gFXxe5-0PjqOesxZWd-R-170" target="gFXxe5-0PjqOesxZWd-R-177" edge="1">
          <mxGeometry relative="1" as="geometry" />
        </mxCell>
        <mxCell id="gFXxe5-0PjqOesxZWd-R-181" style="endArrow=none;html=1;rounded=0;labelBackgroundColor=default;strokeColor=default;fontFamily=Helvetica;fontSize=11;fontColor=default;shape=connector;" parent="1" source="gFXxe5-0PjqOesxZWd-R-170" target="gFXxe5-0PjqOesxZWd-R-180" edge="1">
          <mxGeometry relative="1" as="geometry" />
        </mxCell>
        <mxCell id="gFXxe5-0PjqOesxZWd-R-170" value="Seat" style="rounded=1;whiteSpace=wrap;html=1;arcSize=22;fillColor=#CCE5FF;fontStyle=1" parent="1" vertex="1">
          <mxGeometry x="350" y="900" width="100" height="40" as="geometry" />
        </mxCell>
        <mxCell id="gFXxe5-0PjqOesxZWd-R-171" value="" style="endArrow=none;html=1;rounded=0;labelBackgroundColor=default;strokeColor=default;fontFamily=Helvetica;fontSize=11;fontColor=default;shape=connector;" parent="1" source="gFXxe5-0PjqOesxZWd-R-172" target="gFXxe5-0PjqOesxZWd-R-170" edge="1">
          <mxGeometry relative="1" as="geometry" />
        </mxCell>
        <mxCell id="gFXxe5-0PjqOesxZWd-R-172" value="s_id" style="ellipse;whiteSpace=wrap;html=1;fillColor=#E6D0DE;fontStyle=4" parent="1" vertex="1">
          <mxGeometry x="430" y="980" width="80" height="40" as="geometry" />
        </mxCell>
        <mxCell id="gFXxe5-0PjqOesxZWd-R-177" value="s_type" style="ellipse;whiteSpace=wrap;html=1;fillColor=#E6D0DE;fontFamily=Helvetica;fontSize=11;fontColor=default;" parent="1" vertex="1">
          <mxGeometry x="310" y="980" width="80" height="40" as="geometry" />
        </mxCell>
        <mxCell id="gFXxe5-0PjqOesxZWd-R-182" style="endArrow=none;html=1;rounded=0;labelBackgroundColor=default;strokeColor=default;fontFamily=Helvetica;fontSize=11;fontColor=default;shape=connector;" parent="1" source="gFXxe5-0PjqOesxZWd-R-180" target="gFXxe5-0PjqOesxZWd-R-145" edge="1">
          <mxGeometry relative="1" as="geometry" />
        </mxCell>
        <mxCell id="gFXxe5-0PjqOesxZWd-R-180" value="Has" style="rhombus;whiteSpace=wrap;html=1;fillColor=#9AC7BF;fontFamily=Helvetica;fontSize=11;fontColor=default;fontStyle=1" parent="1" vertex="1">
          <mxGeometry x="610" y="885" width="70" height="70" as="geometry" />
        </mxCell>
        <mxCell id="gFXxe5-0PjqOesxZWd-R-183" value="" style="endArrow=none;html=1;rounded=0;labelBackgroundColor=default;strokeColor=default;fontFamily=Helvetica;fontSize=11;fontColor=default;shape=connector;entryX=0;entryY=0.5;entryDx=0;entryDy=0;" parent="1" source="gFXxe5-0PjqOesxZWd-R-184" target="gFXxe5-0PjqOesxZWd-R-187" edge="1">
          <mxGeometry relative="1" as="geometry" />
        </mxCell>
        <mxCell id="gFXxe5-0PjqOesxZWd-R-184" value="Route" style="rounded=1;whiteSpace=wrap;html=1;arcSize=22;fillColor=#CCE5FF;fontStyle=1" parent="1" vertex="1">
          <mxGeometry x="595" y="480" width="100" height="40" as="geometry" />
        </mxCell>
        <mxCell id="gFXxe5-0PjqOesxZWd-R-185" value="" style="endArrow=none;html=1;rounded=0;labelBackgroundColor=default;strokeColor=default;fontFamily=Helvetica;fontSize=11;fontColor=default;shape=connector;exitX=0;exitY=0.5;exitDx=0;exitDy=0;" parent="1" source="gFXxe5-0PjqOesxZWd-R-186" target="gFXxe5-0PjqOesxZWd-R-184" edge="1">
          <mxGeometry relative="1" as="geometry" />
        </mxCell>
        <mxCell id="gFXxe5-0PjqOesxZWd-R-186" value="r_id" style="ellipse;whiteSpace=wrap;html=1;fillColor=#E6D0DE;fontStyle=4" parent="1" vertex="1">
          <mxGeometry x="730" y="420" width="80" height="40" as="geometry" />
        </mxCell>
        <mxCell id="gFXxe5-0PjqOesxZWd-R-187" value="distance" style="ellipse;whiteSpace=wrap;html=1;fillColor=#E6D0DE;fontFamily=Helvetica;fontSize=11;fontColor=default;" parent="1" vertex="1">
          <mxGeometry x="730" y="545" width="80" height="40" as="geometry" />
        </mxCell>
        <mxCell id="gFXxe5-0PjqOesxZWd-R-191" value="" style="endArrow=none;html=1;rounded=0;labelBackgroundColor=default;strokeColor=default;fontFamily=Helvetica;fontSize=11;fontColor=default;shape=connector;" parent="1" source="gFXxe5-0PjqOesxZWd-R-190" target="gFXxe5-0PjqOesxZWd-R-145" edge="1">
          <mxGeometry relative="1" as="geometry" />
        </mxCell>
        <mxCell id="gFXxe5-0PjqOesxZWd-R-192" value="" style="endArrow=none;html=1;rounded=0;labelBackgroundColor=default;strokeColor=default;fontFamily=Helvetica;fontSize=11;fontColor=default;shape=connector;" parent="1" source="gFXxe5-0PjqOesxZWd-R-190" target="gFXxe5-0PjqOesxZWd-R-184" edge="1">
          <mxGeometry relative="1" as="geometry" />
        </mxCell>
        <mxCell id="gFXxe5-0PjqOesxZWd-R-190" value="Travels in" style="rhombus;whiteSpace=wrap;html=1;fillColor=#9AC7BF;fontFamily=Helvetica;fontSize=11;fontColor=default;fontStyle=1" parent="1" vertex="1">
          <mxGeometry x="610" y="590" width="70" height="70" as="geometry" />
        </mxCell>
        <mxCell id="XfQmimS2TN9046DUO4dq-4" value="&lt;font style=&quot;font-size: 15px;&quot;&gt;1&lt;/font&gt;" style="text;html=1;align=center;verticalAlign=middle;resizable=0;points=[];autosize=1;strokeColor=none;fillColor=none;" parent="1" vertex="1">
          <mxGeometry x="395" y="123" width="30" height="30" as="geometry" />
        </mxCell>
        <mxCell id="XfQmimS2TN9046DUO4dq-10" value="&lt;font style=&quot;font-size: 25px;&quot;&gt;*&lt;/font&gt;" style="text;html=1;align=center;verticalAlign=middle;resizable=0;points=[];autosize=1;strokeColor=none;fillColor=none;" parent="1" vertex="1">
          <mxGeometry x="395" y="250" width="30" height="40" as="geometry" />
        </mxCell>
        <mxCell id="XfQmimS2TN9046DUO4dq-11" value="&lt;font style=&quot;font-size: 15px;&quot;&gt;1&lt;/font&gt;" style="text;html=1;align=center;verticalAlign=middle;resizable=0;points=[];autosize=1;strokeColor=none;fillColor=none;" parent="1" vertex="1">
          <mxGeometry x="395" y="320" width="30" height="30" as="geometry" />
        </mxCell>
        <mxCell id="XfQmimS2TN9046DUO4dq-12" value="&lt;font style=&quot;font-size: 25px;&quot;&gt;*&lt;/font&gt;" style="text;html=1;align=center;verticalAlign=middle;resizable=0;points=[];autosize=1;strokeColor=none;fillColor=none;" parent="1" vertex="1">
          <mxGeometry x="395" y="450" width="30" height="40" as="geometry" />
        </mxCell>
        <mxCell id="XfQmimS2TN9046DUO4dq-14" value="&lt;font style=&quot;font-size: 25px;&quot;&gt;*&lt;/font&gt;" style="text;html=1;align=center;verticalAlign=middle;resizable=0;points=[];autosize=1;strokeColor=none;fillColor=none;" parent="1" vertex="1">
          <mxGeometry x="320" y="499" width="30" height="40" as="geometry" />
        </mxCell>
        <mxCell id="XfQmimS2TN9046DUO4dq-15" value="&lt;font style=&quot;font-size: 15px;&quot;&gt;1&lt;/font&gt;" style="text;html=1;align=center;verticalAlign=middle;resizable=0;points=[];autosize=1;strokeColor=none;fillColor=none;" parent="1" vertex="1">
          <mxGeometry x="200" y="498" width="30" height="30" as="geometry" />
        </mxCell>
        <mxCell id="XfQmimS2TN9046DUO4dq-16" value="&lt;font style=&quot;font-size: 15px;&quot;&gt;1&lt;/font&gt;" style="text;html=1;align=center;verticalAlign=middle;resizable=0;points=[];autosize=1;strokeColor=none;fillColor=none;" parent="1" vertex="1">
          <mxGeometry x="150" y="521" width="30" height="30" as="geometry" />
        </mxCell>
        <mxCell id="XfQmimS2TN9046DUO4dq-17" value="&lt;font style=&quot;font-size: 25px;&quot;&gt;*&lt;/font&gt;" style="text;html=1;align=center;verticalAlign=middle;resizable=0;points=[];autosize=1;strokeColor=none;fillColor=none;" parent="1" vertex="1">
          <mxGeometry x="150" y="697" width="30" height="40" as="geometry" />
        </mxCell>
        <mxCell id="XfQmimS2TN9046DUO4dq-18" value="&lt;font style=&quot;font-size: 15px;&quot;&gt;1&lt;/font&gt;" style="text;html=1;align=center;verticalAlign=middle;resizable=0;points=[];autosize=1;strokeColor=none;fillColor=none;" parent="1" vertex="1">
          <mxGeometry x="150" y="771" width="30" height="30" as="geometry" />
        </mxCell>
        <mxCell id="XfQmimS2TN9046DUO4dq-19" value="&lt;font style=&quot;font-size: 15px;&quot;&gt;1&lt;/font&gt;" style="text;html=1;align=center;verticalAlign=middle;resizable=0;points=[];autosize=1;strokeColor=none;fillColor=none;" parent="1" vertex="1">
          <mxGeometry x="320" y="921" width="30" height="30" as="geometry" />
        </mxCell>
        <mxCell id="XfQmimS2TN9046DUO4dq-20" value="&lt;font style=&quot;font-size: 25px;&quot;&gt;*&lt;/font&gt;" style="text;html=1;align=center;verticalAlign=middle;resizable=0;points=[];autosize=1;strokeColor=none;fillColor=none;" parent="1" vertex="1">
          <mxGeometry x="450" y="921" width="30" height="40" as="geometry" />
        </mxCell>
        <mxCell id="XfQmimS2TN9046DUO4dq-21" value="&lt;font style=&quot;font-size: 15px;&quot;&gt;1&lt;/font&gt;" style="text;html=1;align=center;verticalAlign=middle;resizable=0;points=[];autosize=1;strokeColor=none;fillColor=none;" parent="1" vertex="1">
          <mxGeometry x="640" y="770" width="30" height="30" as="geometry" />
        </mxCell>
        <mxCell id="XfQmimS2TN9046DUO4dq-22" value="&lt;font style=&quot;font-size: 25px;&quot;&gt;*&lt;/font&gt;" style="text;html=1;align=center;verticalAlign=middle;resizable=0;points=[];autosize=1;strokeColor=none;fillColor=none;" parent="1" vertex="1">
          <mxGeometry x="205" y="750" width="30" height="40" as="geometry" />
        </mxCell>
        <mxCell id="XfQmimS2TN9046DUO4dq-23" value="&lt;font style=&quot;font-size: 15px;&quot;&gt;1&lt;/font&gt;" style="text;html=1;align=center;verticalAlign=middle;resizable=0;points=[];autosize=1;strokeColor=none;fillColor=none;" parent="1" vertex="1">
          <mxGeometry x="562" y="750" width="30" height="30" as="geometry" />
        </mxCell>
        <mxCell id="XfQmimS2TN9046DUO4dq-25" value="&lt;font style=&quot;font-size: 15px;&quot;&gt;1&lt;/font&gt;" style="text;html=1;align=center;verticalAlign=middle;resizable=0;points=[];autosize=1;strokeColor=none;fillColor=none;" parent="1" vertex="1">
          <mxGeometry x="640" y="522" width="30" height="30" as="geometry" />
        </mxCell>
        <mxCell id="-T68-a1W6uYI7o4QyFt0-1" value="&lt;font style=&quot;font-size: 15px;&quot;&gt;1&lt;/font&gt;" style="text;html=1;align=center;verticalAlign=middle;resizable=0;points=[];autosize=1;strokeColor=none;fillColor=none;" parent="1" vertex="1">
          <mxGeometry x="640" y="702" width="30" height="30" as="geometry" />
        </mxCell>
        <mxCell id="VN9zvplVHDPRx_Ybqjfq-23" value="" style="endArrow=none;html=1;rounded=0;labelBackgroundColor=default;strokeColor=default;fontFamily=Helvetica;fontSize=11;fontColor=default;shape=connector;" parent="1" source="I8kh9__-VK7uCB--jWXj-1" target="gFXxe5-0PjqOesxZWd-R-47" edge="1">
          <mxGeometry relative="1" as="geometry" />
        </mxCell>
        <mxCell id="I8kh9__-VK7uCB--jWXj-1" value="p_date" style="ellipse;whiteSpace=wrap;html=1;fillColor=#E6D0DE;rotation=0;" parent="1" vertex="1">
          <mxGeometry x="304" y="546" width="80" height="40" as="geometry" />
        </mxCell>
        <mxCell id="VN9zvplVHDPRx_Ybqjfq-3" value="" style="endArrow=none;html=1;rounded=0;labelBackgroundColor=default;strokeColor=default;fontFamily=Helvetica;fontSize=11;fontColor=default;shape=connector;" parent="1" source="VN9zvplVHDPRx_Ybqjfq-1" target="gFXxe5-0PjqOesxZWd-R-80" edge="1">
          <mxGeometry relative="1" as="geometry" />
        </mxCell>
        <mxCell id="VN9zvplVHDPRx_Ybqjfq-1" value="city" style="ellipse;whiteSpace=wrap;html=1;fillColor=#E6D0DE;" parent="1" vertex="1">
          <mxGeometry y="605" width="80" height="40" as="geometry" />
        </mxCell>
        <mxCell id="VN9zvplVHDPRx_Ybqjfq-4" value="country" style="ellipse;whiteSpace=wrap;html=1;fillColor=#E6D0DE;" parent="1" vertex="1">
          <mxGeometry x="60" y="568" width="80" height="40" as="geometry" />
        </mxCell>
        <mxCell id="VN9zvplVHDPRx_Ybqjfq-19" value="" style="endArrow=none;html=1;rounded=0;labelBackgroundColor=default;strokeColor=default;fontFamily=Helvetica;fontSize=11;fontColor=default;shape=connector;exitX=0;exitY=0.5;exitDx=0;exitDy=0;entryX=0.818;entryY=0.876;entryDx=0;entryDy=0;entryPerimeter=0;" parent="1" source="VN9zvplVHDPRx_Ybqjfq-15" target="gFXxe5-0PjqOesxZWd-R-104" edge="1">
          <mxGeometry relative="1" as="geometry">
            <mxPoint x="480" y="840" as="sourcePoint" />
            <mxPoint x="270" y="850" as="targetPoint" />
          </mxGeometry>
        </mxCell>
        <mxCell id="VN9zvplVHDPRx_Ybqjfq-15" value="country" style="ellipse;whiteSpace=wrap;html=1;fillColor=#E6D0DE;" parent="1" vertex="1">
          <mxGeometry x="295" y="845" width="80" height="40" as="geometry" />
        </mxCell>
        <mxCell id="VN9zvplVHDPRx_Ybqjfq-17" value="city" style="ellipse;whiteSpace=wrap;html=1;fillColor=#E6D0DE;" parent="1" vertex="1">
          <mxGeometry x="295" y="771" width="80" height="40" as="geometry" />
        </mxCell>
      </root>
    </mxGraphModel>
  </diagram>
</mxfile>
